<svg xmlns="http://www.w3.org/2000/svg" xmlns:xlink="http://www.w3.org/1999/xlink" version="1.1" width="1000" height="1000" viewBox="0 0 1000 1000" xml:space="preserve">
<desc>Created with Fabric.js 3.5.0</desc>
<defs>
</defs>
<rect x="0" y="0" width="100%" height="100%" fill="rgba(255,255,255,0)"/>
<g transform="matrix(0.9091 0 0 0.9091 90.9095 90.9095)" id="980841">
<rect style="stroke: none; stroke-width: 1; stroke-dasharray: none; stroke-linecap: butt; stroke-dashoffset: 0; stroke-linejoin: miter; stroke-miterlimit: 4; is-custom-font: none; font-file-url: none; fill: rgb(253,253,253); fill-opacity: 0; fill-rule: nonzero; opacity: 1;" x="-50" y="-50" rx="0" ry="0" width="100" height="100"/>
</g>
<g transform="matrix(1.0413 0 0 -0.7822 502.4328 490.5049)" id="117069">
<path style="stroke: none; stroke-width: 1; stroke-dasharray: none; stroke-linecap: butt; stroke-dashoffset: 0; stroke-linejoin: miter; stroke-miterlimit: 4; is-custom-font: none; font-file-url: none; fill: rgb(255,255,255); fill-rule: nonzero; opacity: 1;" vector-effect="non-scaling-stroke" transform=" translate(-750, -734.5105)" d="M 603 952 l -133 -76 l 0 -218 l 0 -218 l 40 0 l 40 0 l 0 180 l 0 180 l 200 0 l 200 0 l 0 -180 l 0 -180 l 40 0 l 40 0 l 0 218 l 0 218 l -135 77 c -74 42 -140 77 -147 76 c -7 0 -73 -35 -145 -77 z" stroke-linecap="round"/>
</g>
<g transform="matrix(1.0413 0 0 -0.5296 499.9995 470.0883)" id="117069">
<path style="stroke: none; stroke-width: 1; stroke-dasharray: none; stroke-linecap: butt; stroke-dashoffset: 0; stroke-linejoin: miter; stroke-miterlimit: 4; is-custom-font: none; font-file-url: none; fill: rgb(255,255,255); fill-rule: nonzero; opacity: 1;" vector-effect="non-scaling-stroke" transform=" translate(-750, -720)" d="M 590 720 l 0 -40 l 160 0 l 160 0 l 0 40 l 0 40 l -160 0 l -160 0 l 0 -40 z" stroke-linecap="round"/>
</g>
<g transform="matrix(1.0413 0 0 -0.5296 499.9995 537.9715)" id="117069">
<path style="stroke: none; stroke-width: 1; stroke-dasharray: none; stroke-linecap: butt; stroke-dashoffset: 0; stroke-linejoin: miter; stroke-miterlimit: 4; is-custom-font: none; font-file-url: none; fill: rgb(255,255,255); fill-rule: nonzero; opacity: 1;" vector-effect="non-scaling-stroke" transform=" translate(-750, -600)" d="M 590 600 l 0 -40 l 160 0 l 160 0 l 0 40 l 0 40 l -160 0 l -160 0 l 0 -40 z" stroke-linecap="round"/>
</g>
<g transform="matrix(1.0413 0 0 -0.5296 499.9995 604.2757)" id="117069">
<path style="stroke: none; stroke-width: 1; stroke-dasharray: none; stroke-linecap: butt; stroke-dashoffset: 0; stroke-linejoin: miter; stroke-miterlimit: 4; is-custom-font: none; font-file-url: none; fill: rgb(255,255,255); fill-rule: nonzero; opacity: 1;" vector-effect="non-scaling-stroke" transform=" translate(-750, -480)" d="M 590 480 l 0 -40 l 160 0 l 160 0 l 0 40 l 0 40 l -160 0 l -160 0 l 0 -40 z" stroke-linecap="round"/>
</g>
<g transform="matrix(1.0413 0 0 -0.5296 500 681.6533)" id="293935">
<path style="stroke: none; stroke-width: 1; stroke-dasharray: none; stroke-linecap: butt; stroke-dashoffset: 0; stroke-linejoin: miter; stroke-miterlimit: 4; is-custom-font: none; font-file-url: none; fill: rgb(255,255,255); fill-rule: nonzero; opacity: 1;" vector-effect="non-scaling-stroke" transform=" translate(-750, -480)" d="M 590 480 l 0 -40 l 160 0 l 160 0 l 0 40 l 0 40 l -160 0 l -160 0 l 0 -40 z" stroke-linecap="round"/>
</g>
</svg>