<svg xmlns="http://www.w3.org/2000/svg" xmlns:xlink="http://www.w3.org/1999/xlink" version="1.1" width="1000" height="1000" viewBox="0 0 1000 1000" xml:space="preserve">
<desc>Created with Fabric.js 3.5.0</desc>
<defs>
</defs>
<rect x="0" y="0" width="100%" height="100%" fill="rgba(255,255,255,0)"/>
<g transform="matrix(3.2514 0 0 3.6518 482.2699 494.6094)" id="993418">
<g style="" vector-effect="non-scaling-stroke">
		<g transform="matrix(0.1333 0 0 -0.1333 -0.0093 6.0554)">
<path style="stroke: none; stroke-width: 1; stroke-dasharray: none; stroke-linecap: butt; stroke-dashoffset: 0; stroke-linejoin: miter; stroke-miterlimit: 4; is-custom-font: none; font-file-url: none; fill: rgb(161,161,161); fill-rule: nonzero; opacity: 1;" transform=" translate(-750, -734.5105)" d="M 603 952 l -133 -76 l 0 -218 l 0 -218 l 40 0 l 40 0 l 0 180 l 0 180 l 200 0 l 200 0 l 0 -180 l 0 -180 l 40 0 l 40 0 l 0 218 l 0 218 l -135 77 c -74 42 -140 77 -147 76 c -7 0 -73 -35 -145 -77 z" stroke-linecap="round"/>
</g>
		<g transform="matrix(0.1333 0 0 -0.1333 -0.0053 7.9986)">
<path style="stroke: none; stroke-width: 1; stroke-dasharray: none; stroke-linecap: butt; stroke-dashoffset: 0; stroke-linejoin: miter; stroke-miterlimit: 4; is-custom-font: none; font-file-url: none; fill: rgb(161,161,161); fill-rule: nonzero; opacity: 1;" transform=" translate(-750, -720)" d="M 590 720 l 0 -40 l 160 0 l 160 0 l 0 40 l 0 40 l -160 0 l -160 0 l 0 -40 z" stroke-linecap="round"/>
</g>
		<g transform="matrix(0.1333 0 0 -0.1333 -0.0053 23.9987)">
<path style="stroke: none; stroke-width: 1; stroke-dasharray: none; stroke-linecap: butt; stroke-dashoffset: 0; stroke-linejoin: miter; stroke-miterlimit: 4; is-custom-font: none; font-file-url: none; fill: rgb(161,161,161); fill-rule: nonzero; opacity: 1;" transform=" translate(-750, -600)" d="M 590 600 l 0 -40 l 160 0 l 160 0 l 0 40 l 0 40 l -160 0 l -160 0 l 0 -40 z" stroke-linecap="round"/>
</g>
		<g transform="matrix(0.1333 0 0 -0.1333 -0.0053 39.9986)">
<path style="stroke: none; stroke-width: 1; stroke-dasharray: none; stroke-linecap: butt; stroke-dashoffset: 0; stroke-linejoin: miter; stroke-miterlimit: 4; is-custom-font: none; font-file-url: none; fill: rgb(161,161,161); fill-rule: nonzero; opacity: 1;" transform=" translate(-750, -480)" d="M 590 480 l 0 -40 l 160 0 l 160 0 l 0 40 l 0 40 l -160 0 l -160 0 l 0 -40 z" stroke-linecap="round"/>
</g>
</g>
</g>
<g transform="matrix(3.2514 0 0 3.6518 273.5302 494.6094)" id="395239">
<g style="" vector-effect="non-scaling-stroke">
		<g transform="matrix(0.1333 0 0 -0.1333 -0.0093 6.0554)">
<path style="stroke: none; stroke-width: 1; stroke-dasharray: none; stroke-linecap: butt; stroke-dashoffset: 0; stroke-linejoin: miter; stroke-miterlimit: 4; is-custom-font: none; font-file-url: none; fill: rgb(161,161,161); fill-rule: nonzero; opacity: 1;" transform=" translate(-750, -734.5105)" d="M 603 952 l -133 -76 l 0 -218 l 0 -218 l 40 0 l 40 0 l 0 180 l 0 180 l 200 0 l 200 0 l 0 -180 l 0 -180 l 40 0 l 40 0 l 0 218 l 0 218 l -135 77 c -74 42 -140 77 -147 76 c -7 0 -73 -35 -145 -77 z" stroke-linecap="round"/>
</g>
		<g transform="matrix(0.1333 0 0 -0.1333 -0.0053 7.9986)">
<path style="stroke: none; stroke-width: 1; stroke-dasharray: none; stroke-linecap: butt; stroke-dashoffset: 0; stroke-linejoin: miter; stroke-miterlimit: 4; is-custom-font: none; font-file-url: none; fill: rgb(161,161,161); fill-rule: nonzero; opacity: 1;" transform=" translate(-750, -720)" d="M 590 720 l 0 -40 l 160 0 l 160 0 l 0 40 l 0 40 l -160 0 l -160 0 l 0 -40 z" stroke-linecap="round"/>
</g>
		<g transform="matrix(0.1333 0 0 -0.1333 -0.0053 23.9987)">
<path style="stroke: none; stroke-width: 1; stroke-dasharray: none; stroke-linecap: butt; stroke-dashoffset: 0; stroke-linejoin: miter; stroke-miterlimit: 4; is-custom-font: none; font-file-url: none; fill: rgb(161,161,161); fill-rule: nonzero; opacity: 1;" transform=" translate(-750, -600)" d="M 590 600 l 0 -40 l 160 0 l 160 0 l 0 40 l 0 40 l -160 0 l -160 0 l 0 -40 z" stroke-linecap="round"/>
</g>
		<g transform="matrix(0.1333 0 0 -0.1333 -0.0053 39.9986)">
<path style="stroke: none; stroke-width: 1; stroke-dasharray: none; stroke-linecap: butt; stroke-dashoffset: 0; stroke-linejoin: miter; stroke-miterlimit: 4; is-custom-font: none; font-file-url: none; fill: rgb(161,161,161); fill-rule: nonzero; opacity: 1;" transform=" translate(-750, -480)" d="M 590 480 l 0 -40 l 160 0 l 160 0 l 0 40 l 0 40 l -160 0 l -160 0 l 0 -40 z" stroke-linecap="round"/>
</g>
</g>
</g>
</svg>